<?xml version="1.0" standalone="no"?><svg xmlns:xlink="http://www.w3.org/1999/xlink" xmlns="http://www.w3.org/2000/svg" viewBox="0 0 1000 600.0067629256416" preserveAspectRatio="xMaxYMax slice"><g transform="scale(1.352585128326514)"><rect x="0" y="0" width="739.3333333333334" height="443.6" fill="#ffffff"/><rect x="0" y="0" width="73.93333333333334" height="73.93333333333334" fill="#ffffff"/><path d="M 0 0 A 36.97 36.97 0 0 1  36.97 36.97 L 0 0 A 36.97 36.97 0 0 0 36.97 36.97" fill="#ff9ab2"/><path d="M 0 36.97 A 36.97 36.97 0 0 1  36.97 73.94 L 0 36.97 A 36.97 36.97 0 0 0 36.97 73.94" fill="#c9d2f8"/><rect x="73.93333333333334" y="0" width="73.93333333333334" height="73.93333333333334" fill="#ffffff"/><path d="M 73.93 73.94 A 36.97 36.97 0 0 1  110.9 36.97 L 73.93 73.94 A 36.97 36.97 0 0 0 110.9 36.97" fill="#f3f5fd"/><path d="M 110.9 73.94 A 36.97 36.97 0 0 1  147.87 36.97 L 110.9 73.94 A 36.97 36.97 0 0 0 147.87 36.97" fill="#e5e9fc"/><rect x="443.6" y="0" width="73.93333333333334" height="73.93333333333334" fill="#ffffff"/><path d="M 480.57 36.97 A 36.97 36.97 0 0 1  517.54 0 L 480.57 36.97 A 36.97 36.97 0 0 0 517.54 0" fill="#c1cbf7"/><path d="M 443.6 73.94 A 36.97 36.97 0 0 1  480.57000000000005 36.97 L 443.6 73.94 A 36.97 36.97 0 0 0 480.57000000000005 36.97" fill="#fff7f9"/><path d="M 665.4 0 A 73.93 73.93 0 0 1  739.3299999999999 73.93 L 665.4 0 A 73.93 73.93 0 0 0 739.3299999999999 73.93" fill="#ff7f9d"/><rect x="0" y="73.93333333333334" width="73.93333333333334" height="73.93333333333334" fill="#ffffff"/><path d="M 0 110.9 A 36.97 36.97 0 0 1  36.97 73.93 L 0 110.9 A 36.97 36.97 0 0 0 36.97 73.93" fill="#dee3fb"/><path d="M 36.97 73.93 A 36.97 36.97 0 0 1  73.94 110.9 L 36.97 73.93 A 36.97 36.97 0 0 0 73.94 110.9" fill="#e2e7fb"/><rect x="147.86666666666667" y="73.93333333333334" width="73.93333333333334" height="73.93333333333334" fill="#ffffff"/><path d="M 73.93 221.8 A 73.93 73.93 0 0 1  147.86 147.87 L 73.93 221.8 A 73.93 73.93 0 0 0 147.86 147.87" fill="#eff2fd"/><rect x="369.6666666666667" y="147.86666666666667" width="73.93333333333334" height="73.93333333333334" fill="#ffffff"/><path d="M 406.63 184.84 A 36.97 36.97 0 0 1  443.6 147.87 L 406.63 184.84 A 36.97 36.97 0 0 0 443.6 147.87" fill="#ffbecd"/><path d="M 591.47 221.8 A 73.93 73.93 0 0 1  665.4000000000001 147.87 L 591.47 221.8 A 73.93 73.93 0 0 0 665.4000000000001 147.87" fill="#e0e5fb"/><rect x="665.4000000000001" y="147.86666666666667" width="73.93333333333334" height="73.93333333333334" fill="#ffffff"/><path d="M 665.4 221.8 A 36.97 36.97 0 0 1  702.37 184.83 L 665.4 221.8 A 36.97 36.97 0 0 0 702.37 184.83" fill="#ffcad6"/><rect x="0" y="221.8" width="73.93333333333334" height="73.93333333333334" fill="#ffffff"/><path d="M 73.93 295.73 A 73.93 73.93 0 0 1  147.86 221.8 L 73.93 295.73 A 73.93 73.93 0 0 0 147.86 221.8" fill="#5572e9"/><path d="M 73.93 295.73 A 73.93 73.93 0 0 1  147.86 369.66 L 73.93 295.73 A 73.93 73.93 0 0 0 147.86 369.66" fill="#90a3f1"/><path d="M 369.67 369.67 A 73.93 73.93 0 0 1  443.6 443.6 L 369.67 369.67 A 73.93 73.93 0 0 0 443.6 443.6" fill="#3a5be5"/><rect x="517.5333333333333" y="369.6666666666667" width="73.93333333333334" height="73.93333333333334" fill="#ffffff"/><path d="M 517.53 443.6 A 36.97 36.97 0 0 1  554.5 406.63 L 517.53 443.6 A 36.97 36.97 0 0 0 554.5 406.63" fill="#778eed"/><path d="M 554.5 443.6 A 36.97 36.97 0 0 1  591.47 406.63 L 554.5 443.6 A 36.97 36.97 0 0 0 591.47 406.63" fill="#ff3d6b"/></g></svg>