<?xml version="1.0" standalone="no"?><svg xmlns:xlink="http://www.w3.org/1999/xlink" xmlns="http://www.w3.org/2000/svg" viewBox="0 0 900 270" preserveAspectRatio="xMaxYMax slice"><g transform="scale(0.7992895204262878)"><rect x="0" y="0" width="1126" height="450.4" fill="#ffffff"/><circle cx="56.3" cy="56.3" r="28.15" fill="#ffcbd7"/><circle cx="168.9" cy="56.3" r="28.15" fill="#4b69e8"/><circle cx="281.5" cy="56.3" r="28.15" fill="#d0d8f9"/><circle cx="394.09999999999997" cy="56.3" r="28.15" fill="#ff90aa"/><circle cx="506.7" cy="56.3" r="28.15" fill="#ff6a8e"/><circle cx="619.3" cy="56.3" r="28.15" fill="#ff517b"/><circle cx="731.9" cy="56.3" r="28.15" fill="#c9d2f8"/><circle cx="844.5" cy="56.3" r="28.15" fill="#7b92ee"/><circle cx="957.1" cy="56.3" r="28.15" fill="#cad3f8"/><circle cx="1069.7" cy="56.3" r="28.15" fill="#ff89a5"/><circle cx="56.3" cy="168.9" r="28.15" fill="#a2b2f3"/><circle cx="168.9" cy="168.9" r="28.15" fill="#b8c4f6"/><circle cx="281.5" cy="168.9" r="28.15" fill="#1b41e1"/><circle cx="394.09999999999997" cy="168.9" r="28.15" fill="#d0d8f9"/><circle cx="506.7" cy="168.9" r="28.15" fill="#3b5ce6"/><circle cx="619.3" cy="168.9" r="28.15" fill="#8ea1f0"/><circle cx="731.9" cy="168.9" r="28.15" fill="#ff3867"/><circle cx="844.5" cy="168.9" r="28.15" fill="#ffdee5"/><circle cx="957.1" cy="168.9" r="28.15" fill="#e7ebfc"/><circle cx="1069.7" cy="168.9" r="28.15" fill="#4564e7"/><circle cx="56.3" cy="281.5" r="28.15" fill="#ff7495"/><circle cx="168.9" cy="281.5" r="28.15" fill="#5d79ea"/><circle cx="281.5" cy="281.5" r="28.15" fill="#fff7f9"/><circle cx="394.09999999999997" cy="281.5" r="28.15" fill="#798fee"/><circle cx="506.7" cy="281.5" r="28.15" fill="#869aef"/><circle cx="619.3" cy="281.5" r="28.15" fill="#b3c0f5"/><circle cx="731.9" cy="281.5" r="28.15" fill="#ff6489"/><circle cx="844.5" cy="281.5" r="28.15" fill="#ff8ca7"/><circle cx="957.1" cy="281.5" r="28.15" fill="#c1cbf7"/><circle cx="1069.7" cy="281.5" r="28.15" fill="#4161e6"/><circle cx="56.3" cy="394.09999999999997" r="28.15" fill="#ff4c77"/><circle cx="168.9" cy="394.09999999999997" r="28.15" fill="#ff82a0"/><circle cx="281.5" cy="394.09999999999997" r="28.15" fill="#ffafc2"/><circle cx="394.09999999999997" cy="394.09999999999997" r="28.15" fill="#728aed"/><circle cx="506.7" cy="394.09999999999997" r="28.15" fill="#ff4c76"/><circle cx="619.3" cy="394.09999999999997" r="28.15" fill="#ffaec1"/><circle cx="731.9" cy="394.09999999999997" r="28.15" fill="#c7d1f8"/><circle cx="844.5" cy="394.09999999999997" r="28.15" fill="#4766e7"/><circle cx="957.1" cy="394.09999999999997" r="28.15" fill="#a7b6f4"/><circle cx="1069.7" cy="394.09999999999997" r="28.15" fill="#ff577f"/></g></svg>